<svg xmlns="http://www.w3.org/2000/svg" viewBox="0 0 300.35 148.37"><defs><style>.cls-1,.cls-2{fill:#fff;}.cls-2{stroke:#000;stroke-linecap:round;stroke-linejoin:round;stroke-width:2px;}</style></defs><title>rice_placeholder</title><g id="Layer_2" data-name="Layer 2"><g id="Layer_1-2" data-name="Layer 1"><path class="cls-1" d="M150,121.7c-40,0-77.52-5.18-105.75-14.59C16.36,97.81,1,85.59,1,72.7S16.36,47.59,44.25,38.3C72.48,28.88,110,23.7,150,23.7s77.52,5.18,105.75,14.59C283.64,47.59,299,59.81,299,72.7s-15.36,25.11-43.25,34.41C227.52,116.52,190,121.7,150,121.7Z"/><path d="M150,24.7c39.86,0,77.3,5.16,105.43,14.54C282.49,48.26,298,60.46,298,72.7s-15.51,24.44-42.57,33.46C227.3,115.54,189.86,120.7,150,120.7s-77.3-5.16-105.43-14.54C17.51,97.14,2,84.95,2,72.7S17.51,48.26,44.57,39.24C72.7,29.87,110.14,24.7,150,24.7m0-2C67.16,22.7,0,45.09,0,72.7s67.16,50,150,50,150-22.39,150-50-67.16-50-150-50Z"/><path class="cls-2" d="M244.92,70.47c-20.1,14.48-68,18.22-94.94,18.16-26.07,0-75.12-3.58-94.94-18.16l.29-.39c-2.23-1.64-4.25-3-5.47-4.88-1.43-2.2-.79-4.72-1.07-7.1S45,52.77,45.7,50.31A35.9,35.9,0,0,1,48.91,43c1.17-2.14,3.23-4.14,4.77-6.1s2.83-4.54,4.57-6.22,6.29-.38,8.26-1.93,1.95-5.78,4.05-7.16,4.71-2,6.92-3.19,5.23-.64,7.51-1.69,4.47-2,6.81-2.92,4-3.53,6.4-4.31,4.63-2.1,7-2.75,5.39,1,7.82.47,4.84-1,7.29-1.46,5,.07,7.47-.25,4.62-3.83,7.09-4,5.14,1.65,7.61,1.54,5-2,7.45-2,4.9,3.14,7.4,3.25,4.84.9,7.34,1.11,5.18-2,7.65-1.69,4.6,2.71,7.05,3.14,5.54-2.36,8-1.83,5,.9,7.4,1.54,4.69,2,7,2.78,4.45,2.54,6.75,3.43,4,3.29,6.24,4.33,5.34.48,7.5,1.66,5.22,1.24,7.28,2.59S234,24.08,236,25.6s1.65,5.82,3.42,7.53,4.38,2.62,5.93,4.58,4.87,3,6,5.18-.15,5.78.46,8.09c.66,2.47.17,4.8-.11,7.2s.1,5-1.34,7.18c-1.23,1.87-3.53,3-5.78,4.62"/><rect class="cls-2" x="104" y="32.7" width="15" height="5" rx="2.5" ry="2.5" transform="translate(12.91 -27.66) rotate(15)"/><rect class="cls-2" x="175" y="12.7" width="10" height="5" rx="2.5" ry="2.5" transform="translate(31.72 -87.96) rotate(30)"/><rect class="cls-2" x="155" y="27.7" width="10" height="5" rx="2.5" ry="2.5" transform="translate(25.51 121.98) rotate(-45)"/><circle class="cls-1" cx="157.5" cy="15.2" r="1.5"/><path d="M157.5,14.7a.5.5,0,1,1-.5.5.5.5,0,0,1,.5-.5m0-2a2.5,2.5,0,1,0,2.5,2.5,2.5,2.5,0,0,0-2.5-2.5Z"/><circle class="cls-1" cx="195" cy="27.7" r="4"/><path d="M195,24.7a3,3,0,1,1-3,3,3,3,0,0,1,3-3m0-2a5,5,0,1,0,5,5,5,5,0,0,0-5-5Z"/><circle class="cls-1" cx="130" cy="22.7" r="4"/><path d="M130,19.7a3,3,0,1,1-3,3,3,3,0,0,1,3-3m0-2a5,5,0,1,0,5,5,5,5,0,0,0-5-5Z"/><circle class="cls-1" cx="177.5" cy="40.2" r="1.5"/><path d="M177.5,39.7a.5.5,0,1,1-.5.5.5.5,0,0,1,.5-.5m0-2a2.5,2.5,0,1,0,2.5,2.5,2.5,2.5,0,0,0-2.5-2.5Z"/><circle class="cls-1" cx="112.5" cy="20.2" r="1.5"/><path d="M112.5,19.7a.5.5,0,1,1-.5.5.5.5,0,0,1,.5-.5m0-2a2.5,2.5,0,1,0,2.5,2.5,2.5,2.5,0,0,0-2.5-2.5Z"/><polygon class="cls-2" points="297.1 57.48 57.45 147.37 54.02 137.97 295.38 52.78 297.1 57.48"/><polygon class="cls-2" points="299.35 63.22 52.78 131.88 50.19 122.22 298.06 58.39 299.35 63.22"/></g></g></svg>